HIERARCHY
ROOT ROOT
{
	OFFSET 0.000000 56.020000 -5.659234
	CHANNELS 6 Xposition Yposition Zposition Xrotation Yrotation Zrotation 
	JOINT C_spine0001_bind_JNT
	{
		OFFSET 0.000000 1.618999 0.000000
		CHANNELS 3 Xrotation Yrotation Zrotation
		JOINT C_spine0002_bind_JNT
		{
			OFFSET 0.000000 4.942001 0.000001
			CHANNELS 3 Xrotation Yrotation Zrotation
			JOINT C_spine0003_bind_JNT
			{
				OFFSET 0.000000 4.942001 -0.000000
				CHANNELS 3 Xrotation Yrotation Zrotation
				JOINT C_neck0001_bind_JNT
				{
					OFFSET 0.000000 17.026009 -0.000000
					CHANNELS 3 Xrotation Yrotation Zrotation
					JOINT C_neck0002_bind_JNT
					{
						OFFSET 0.000000 3.249985 0.000000
						CHANNELS 3 Xrotation Yrotation Zrotation
						JOINT C_head_bind_JNT
						{
							OFFSET 0.000000 5.278008 0.000000
							CHANNELS 3 Xrotation Yrotation Zrotation
							End Site
							{
								OFFSET 0.000000 0.000000 0.000000
							}
						}
					}
				}
				JOINT L_clavicle_bind_JNT
				{
					OFFSET 4.590000 12.067001 0.834000
					CHANNELS 3 Xrotation Yrotation Zrotation
					JOINT L_armUpper0001_bind_JNT
					{
						OFFSET 7.812635 0.512001 -3.452945
						CHANNELS 3 Xrotation Yrotation Zrotation
						JOINT L_armLower0001_bind_JNT
						{
							OFFSET 15.265892 -6.552116 -0.058157
							CHANNELS 3 Xrotation Yrotation Zrotation
							JOINT L_hand0001_bind_JNT
							{
								OFFSET 14.747667 -6.369995 5.049225
								CHANNELS 3 Xrotation Yrotation Zrotation
								End Site
								{
									OFFSET 0.000000 0.000000 0.000000
								}
							}
						}
					}
				}
				JOINT R_clavicle_bind_JNT
				{
					OFFSET -4.590000 12.067001 0.834000
					CHANNELS 3 Xrotation Yrotation Zrotation
					JOINT R_armUpper0001_bind_JNT
					{
						OFFSET -7.812635 0.512001 -3.452945
						CHANNELS 3 Xrotation Yrotation Zrotation
						JOINT R_armLower0001_bind_JNT
						{
							OFFSET -15.265890 -6.552124 -0.058160
							CHANNELS 3 Xrotation Yrotation Zrotation
							JOINT R_hand0001_bind_JNT
							{
								OFFSET -14.746784 -6.369629 5.048937
								CHANNELS 3 Xrotation Yrotation Zrotation
								End Site
								{
									OFFSET 0.000000 0.000000 0.000000
								}
							}
						}
					}
				}
			}
		}
	}
	JOINT C_pelvis0001_bind_JNT
	{
		OFFSET -0.000000 0.000000 0.000000
		CHANNELS 3 Xrotation Yrotation Zrotation
		JOINT L_legUpper0001_bind_JNT
		{
			OFFSET 6.599999 -6.027000 0.539000
			CHANNELS 3 Xrotation Yrotation Zrotation
			JOINT L_legLower0001_bind_JNT
			{
				OFFSET -0.140713 -19.187443 0.040261
				CHANNELS 3 Xrotation Yrotation Zrotation
				JOINT L_foot0001_bind_JNT
				{
					OFFSET -0.132215 -18.028637 -1.138370
					CHANNELS 3 Xrotation Yrotation Zrotation
					JOINT L_foot0002_bind_JNT
					{
						OFFSET 0.007014 -4.693133 9.886524
						CHANNELS 3 Xrotation Yrotation Zrotation
						End Site
						{
							OFFSET 0.000000 0.000000 0.000000
						}
					}
				}
			}
		}
		JOINT R_legUpper0001_bind_JNT
		{
			OFFSET -6.599999 -6.027000 0.539000
			CHANNELS 3 Xrotation Yrotation Zrotation
			JOINT R_legLower0001_bind_JNT
			{
				OFFSET 0.140710 -19.187164 0.040550
				CHANNELS 3 Xrotation Yrotation Zrotation
				JOINT R_foot0001_bind_JNT
				{
					OFFSET 0.132215 -18.028633 -1.138362
					CHANNELS 3 Xrotation Yrotation Zrotation
					JOINT R_foot0002_bind_JNT
					{
						OFFSET -0.007014 -4.693128 9.886505
						CHANNELS 3 Xrotation Yrotation Zrotation
						End Site
						{
							OFFSET 0.000000 0.000000 0.000000
						}
					}
				}
			}
		}
	}
}
MOTION
Frames: 14
Frame Time: 0.033333
8.281426 48.040722 89.122726 0.017249 -8.949722 -0.041206 5.266454 15.996591 -0.565954 -4.331246 1.428185 -0.402143 5.735947 1.769651 -1.201307 20.038214 -1.994178 1.592399 0.238519 0.080637 0.042943 1.173754 -3.604130 2.933381 12.929380 0.464009 5.646529 -31.196795 -8.234348 -69.552872 12.098819 21.228195 0.977721 -5.025651 -15.052169 -30.184444 12.014249 -2.016928 -8.361820 -30.253000 9.601974 70.278671 -0.890125 -22.544310 6.213745 -5.677904 8.407762 17.325563 5.893163 13.161223 0.975494 -16.714565 -13.798110 -7.817827 12.597428 -6.919960 1.560551 -1.714572 -0.492660 0.228112 -1.685169 0.163015 0.165840 -14.636611 2.007600 -2.221505 48.920422 0.006053 1.345689 -0.951807 15.477095 3.373086 -8.912035 1.026102 -11.836897 
8.346077 48.169086 89.816414 0.022500 -8.747724 -0.036162 5.453572 15.110430 -0.797313 -4.213148 1.284254 -0.523855 5.860048 1.630758 -1.285642 20.084085 -1.914928 1.536771 0.212511 0.031542 0.025434 1.011081 -3.263759 2.945555 12.682328 -0.015157 5.610771 -31.887409 -8.683397 -69.181335 11.804067 21.062977 0.876208 -5.048334 -14.513076 -30.208118 11.582591 -1.879864 -8.389444 -29.610935 9.005241 69.857132 -1.525814 -22.261753 6.310588 -5.836575 8.286077 17.254080 5.947993 12.636631 0.333461 -15.070458 -14.246681 -6.852471 11.670397 -6.944516 1.394278 -2.092391 -0.112525 0.499687 -1.848297 0.284771 0.196870 -17.330263 1.350523 -1.788382 50.699829 0.022129 0.783406 -2.898293 14.454801 2.800117 -6.590324 1.126760 -10.047494 
8.339261 48.323601 90.623138 0.024651 -8.631099 -0.037108 5.746376 14.521485 -0.952790 -4.223260 1.125870 -0.562565 5.975228 1.534800 -1.462571 20.026911 -1.903396 1.673751 0.306006 0.168300 -0.124858 1.014804 -3.409137 2.901052 12.178819 -0.359868 5.401709 -32.413811 -9.136828 -68.692932 12.034420 20.975330 0.531177 -5.271077 -13.931266 -30.143887 11.189075 -1.664322 -8.237410 -29.093609 8.557961 69.284744 -1.559307 -22.090109 6.862728 -6.059453 7.733829 17.077103 6.060959 12.356816 -0.123934 -13.609856 -14.769723 -6.023712 10.915809 -6.750837 1.211384 -2.407322 0.130608 0.594970 -2.006498 0.090729 0.287654 -19.478193 1.203732 -1.630423 50.347584 0.172904 0.726724 -4.976097 13.304096 1.364760 -6.183834 1.699057 -7.910486 
8.343707 48.441681 91.477470 0.030215 -8.318663 -0.038726 5.992306 13.694902 -1.161350 -4.079264 0.966100 -0.575198 6.035965 1.445225 -1.508114 19.996765 -1.902907 1.544397 0.194374 0.130146 0.013333 1.053303 -3.221940 2.817221 11.783605 -0.560375 5.214384 -33.005505 -9.435911 -68.111237 12.410644 20.551683 0.011898 -5.346696 -13.548588 -29.980335 10.939650 -1.579098 -8.210348 -28.709719 8.379163 69.066727 -1.645263 -21.951403 6.953973 -6.058959 7.298577 17.141176 6.118690 11.784083 -0.557342 -11.960121 -14.802368 -5.240770 9.991127 -6.527139 0.905599 -2.410486 -0.074312 1.027240 -2.457136 0.204550 0.345104 -21.562546 0.985499 -1.064713 48.342052 0.105237 0.343802 -6.679523 12.923944 -0.196181 -6.296795 2.347739 -5.364850 
8.286620 48.561325 92.412170 0.028816 -8.518844 -0.036773 6.425875 13.430092 -1.300992 -4.085372 0.922158 -0.526521 6.117145 1.347640 -1.628072 20.059671 -1.889547 1.580659 0.326644 0.127746 -0.040290 0.720784 -3.297214 2.823004 11.487858 -0.527226 5.028884 -33.223846 -10.026656 -67.641838 12.458179 19.822769 -0.433981 -5.650572 -13.302814 -29.735233 10.822528 -1.427735 -8.240788 -28.399561 8.197305 68.984703 -1.415952 -21.955324 7.232108 -5.905782 6.682929 16.984053 6.596475 11.728530 -0.855626 -10.910420 -14.941010 -4.723194 9.281264 -6.211630 0.664017 -2.827379 0.061037 1.082121 -2.615565 0.105012 0.536923 -22.985006 0.469220 -0.523427 44.142330 0.462909 -0.350364 -7.108009 13.252434 -1.332259 -6.623599 2.504547 -2.921556 
8.165135 48.681095 93.385925 0.033463 -8.400745 -0.030874 6.857151 12.992955 -1.501691 -4.069241 0.724869 -0.374262 6.284177 1.246005 -1.645553 20.051252 -1.851977 1.535086 0.309216 0.182808 -0.095885 0.690644 -3.180850 2.899892 11.188455 -0.357772 4.949518 -33.570358 -10.053150 -67.433746 12.766889 18.932102 -0.797042 -5.744639 -13.108166 -29.567959 10.940876 -1.267470 -8.266172 -28.375767 8.125332 69.059227 -1.388041 -22.098211 6.924536 -5.578115 6.340146 17.080929 7.065485 11.415315 -1.027599 -9.353071 -14.932917 -3.984670 8.329820 -5.801259 0.205750 -3.277762 -0.087408 1.497947 -2.942993 0.245099 0.590257 -24.221638 -0.257249 -0.053490 38.858967 1.317810 -0.703900 -7.464767 13.959414 -1.720519 -5.613793 2.508654 -1.103801 
8.020382 48.774677 94.561981 0.027763 -8.286589 -0.035096 7.445029 12.652222 -1.613482 -4.179802 0.647148 -0.309149 6.261270 1.078804 -1.911973 20.213791 -1.642164 1.685564 0.371215 0.087235 -0.165317 0.676500 -3.148761 2.906526 11.173955 -0.056654 5.125501 -34.031498 -10.415957 -67.321159 12.854687 18.560984 -1.037814 -5.775007 -13.189756 -29.560583 11.245640 -1.226975 -8.192410 -28.212681 7.978521 69.392670 -1.453868 -22.069576 6.769400 -5.196978 6.216559 17.175121 7.482623 11.294164 -1.022926 -7.642957 -15.189584 -3.578414 7.353216 -5.428904 -0.034305 -3.913546 -0.157966 1.574469 -3.297037 -0.065318 0.869486 -25.097754 -1.427937 -0.005632 33.118847 2.407253 -0.883493 -6.809841 14.726516 -0.495889 -4.171484 2.670968 -0.593933 
7.875474 48.806072 95.847504 0.035997 -7.905102 -0.036152 7.713222 12.292094 -1.575683 -3.970937 0.556825 -0.262493 6.221039 0.979125 -1.865041 20.365026 -1.667129 1.676432 0.310931 0.040974 -0.191913 0.984571 -3.132710 2.983599 11.386755 0.389953 5.039589 -34.450119 -10.780405 -67.559532 12.859384 17.991117 -1.001441 -5.878440 -13.221496 -29.545221 11.635470 -1.286941 -8.273736 -28.433332 8.123609 69.673378 -1.527016 -22.378899 6.707914 -5.098493 6.219069 17.092979 7.827724 11.102994 -0.967478 -5.856321 -15.129162 -2.919578 6.237620 -5.191151 -0.592754 -4.374486 -0.481229 1.855599 -3.540331 0.111155 0.948216 -25.071489 -2.634134 0.401907 27.077227 3.240869 -0.733283 -5.311842 15.138376 0.532836 -3.026884 2.894594 -0.379860 
7.788821 48.764652 97.123466 0.029285 -7.808519 -0.030187 7.819061 12.417743 -1.502509 -3.924998 0.396726 -0.270975 6.280488 1.039326 -1.757225 20.388845 -1.714067 1.686931 0.353609 0.038074 -0.231521 1.189020 -3.284212 3.055071 11.579353 0.612806 5.027392 -34.655418 -11.047093 -67.744766 12.753036 17.884716 -1.005106 -6.100642 -13.759356 -29.575302 11.923277 -1.536638 -8.157897 -28.225700 8.113451 69.789581 -1.700767 -22.663084 6.477689 -5.105033 6.527870 17.137260 7.986101 11.482145 -0.932559 -4.359113 -15.433467 -2.644850 5.860329 -5.020893 -0.878184 -4.588692 -0.903872 1.643648 -4.311305 -0.069794 1.743309 -25.171980 -4.077997 0.709131 22.629742 3.504241 -0.709324 -3.463854 15.638538 1.419535 -1.956344 2.831473 -0.224690 
7.653121 48.662991 98.503464 0.030437 -7.544535 -0.031781 7.752879 12.643680 -1.307350 -3.954670 0.364440 -0.127025 6.251778 0.944064 -1.557485 20.612297 -1.901058 1.639470 0.409228 0.077743 -0.270492 1.790736 -3.504616 3.165331 12.167445 0.858053 4.948168 -35.117207 -11.473461 -68.095589 12.579154 17.956707 -1.229630 -5.925201 -14.128650 -29.326918 12.353038 -1.610694 -8.056874 -28.013765 7.789244 69.407852 -1.768258 -23.014816 6.394598 -4.842158 6.990436 17.248318 8.170683 11.964595 -0.959972 -3.031773 -15.544215 -2.276104 5.999990 -5.022156 -0.959874 -4.594467 -1.400934 1.306544 -5.611429 -0.303021 2.230279 -24.662867 -5.018462 1.570704 19.011723 2.860626 -0.628186 -0.826161 15.781483 0.647440 -1.838209 2.705158 -0.642543 
7.531182 48.546471 99.870628 0.025700 -7.392600 -0.027855 7.620087 12.838182 -1.070758 -3.978392 0.213922 -0.119789 6.132525 0.969332 -1.337497 20.890175 -1.886642 1.581009 0.335710 -0.047788 -0.199371 2.126257 -3.519348 2.917179 12.659709 1.166291 5.080203 -34.841812 -11.391377 -68.594620 12.479803 18.094883 -1.030985 -5.823908 -14.822543 -29.040016 12.715948 -1.710674 -7.944846 -27.410122 7.520058 69.290367 -1.698761 -23.102076 6.261071 -4.846759 7.586440 17.336641 8.086907 12.426620 -0.846933 -1.743451 -15.802728 -1.864615 6.426705 -4.563592 -1.321342 -4.495889 -1.701775 0.816533 -7.154943 -0.852017 3.158365 -24.491318 -5.455456 2.425410 17.810740 2.490472 -1.049258 -0.263073 15.101725 -0.461854 -1.396327 2.410962 -0.603826 
7.408205 48.413368 101.347809 0.028307 -7.573984 -0.037859 7.365222 13.338984 -0.769535 -3.974994 0.196878 -0.036835 5.984224 0.903165 -1.068838 21.228016 -1.952544 1.516963 0.337673 -0.032386 -0.199873 2.925848 -3.534975 2.922764 13.169607 1.591941 5.404356 -34.783203 -11.291675 -69.467522 12.400816 18.476110 -0.821841 -5.601415 -15.429523 -28.895872 12.921671 -1.844957 -8.104561 -26.865587 7.224234 69.029617 -1.170945 -23.256847 6.585055 -5.002278 8.022099 17.333715 8.035359 13.189512 -0.669904 -0.857233 -15.922401 -1.809374 7.872190 -4.267012 -1.353898 -5.031275 -2.149947 0.389572 -8.736963 -1.182094 3.908880 -23.945868 -4.510840 2.968008 17.720398 2.319299 -1.139197 0.309842 13.636671 -2.051592 -1.592701 2.033574 -0.714308 
7.218113 48.281864 102.658897 0.021677 -7.406308 -0.027665 7.091636 13.493724 -0.484985 -3.958341 0.148672 -0.000583 5.921003 0.837660 -0.715905 21.320303 -1.979487 1.398737 0.310011 -0.102019 -0.027131 3.252056 -3.545961 2.766022 13.379530 1.609428 5.668386 -34.399353 -10.787373 -70.212616 12.526729 18.867508 -0.416641 -5.697376 -15.720088 -28.947300 13.053909 -1.922486 -8.078838 -26.546274 6.832687 68.904915 -0.905841 -23.419811 6.444230 -4.947779 8.357768 17.609604 7.768961 13.534492 -0.538255 0.052718 -15.822317 -1.500413 9.485456 -3.820602 -1.441172 -5.215521 -2.696346 -0.302127 -10.597870 -1.565073 4.750406 -23.046158 -3.494571 3.364251 18.574730 2.053755 -1.197574 -0.877450 12.122408 -2.463165 -1.820270 1.958284 -0.794847 
7.064053 48.275364 103.684204 0.023475 -7.457304 -0.036353 6.963917 13.677213 -0.127782 -4.017795 0.047110 0.132327 5.724332 0.790128 -0.461038 21.611145 -2.106461 1.581727 0.360076 -0.026286 -0.151093 3.621426 -3.767144 2.872244 13.608808 1.519718 5.997365 -33.921448 -10.390478 -70.784126 12.309008 19.364265 -0.046617 -5.574644 -16.299459 -29.278017 13.272991 -2.047691 -8.046546 -26.516193 6.834496 68.581665 -0.694281 -23.737597 6.700018 -4.857227 8.538333 17.545277 7.682192 13.883655 -0.532893 0.086595 -15.431589 -1.167644 11.604874 -3.744664 -1.595562 -4.769061 -3.296906 -0.989338 -12.859419 -1.832434 5.637509 -22.264128 -2.938330 3.700503 19.223410 1.518328 -1.096619 -2.182529 11.025230 -2.578890 -1.768674 1.713568 -0.863586 
